<svg id="Capa_1" enable-background="new 0 0 511.811 511.811" viewBox="0 0 511.811 511.811" xmlns="http://www.w3.org/2000/svg"><path d="m434.118 369.262-21.213-21.213-21.566 21.567-20.742-20.742-21.213 21.213 20.742 20.742-21.567 21.567 21.212 21.213 21.568-21.567 21.684 21.685 21.213-21.213-21.684-21.685z"/><path d="m406.14 272.659v-142.072l-130.577-130.577h-275.563v495.79h331.994c17.619 10.173 38.05 16 59.816 16 66.168 0 120-53.832 120-120 .001-61.319-46.233-112.036-105.67-119.141zm-121.786-221.433 69.573 69.574h-69.573zm-254.354-21.216h224.354v120.79h121.786v122.023c-58.79 7.702-104.329 58.119-104.329 118.977 0 27.896 9.568 53.599 25.595 74h-267.406zm361.811 451.79c-49.626 0-90-40.374-90-90s40.374-90 90-90 90 40.374 90 90-40.374 90-90 90z"/><path d="m74.905 195.467h256.333v30h-256.333z"/><path d="m74.905 135.467h120v30h-120z"/><path d="m74.905 315.467h120v30h-120z"/><path d="m74.905 255.467h180v30h-180z"/></svg>